<?xml version="1.0" standalone="no"?>
<!DOCTYPE svg PUBLIC "-//W3C//DTD SVG 20010904//EN"
 "http://www.w3.org/TR/2001/REC-SVG-20010904/DTD/svg10.dtd">
<svg version="1.0" xmlns="http://www.w3.org/2000/svg"
 width="1000.000000pt" height="1000.000000pt" viewBox="0 0 1000.000000 1000.000000"
 preserveAspectRatio="xMidYMid meet">
<metadata>
Created by potrace 1.14, written by Peter Selinger 2001-2017
</metadata>
<g transform="translate(0.000000,1000.000000) scale(0.100000,-0.100000)"
fill="#000000" stroke="none">
<path d="M3793 8060 c-39 -38 -68 -70 -65 -70 2 0 -11 -13 -31 -29 -20 -15
-34 -31 -30 -35 3 -3 2 -6 -4 -6 -14 0 -122 -108 -115 -115 3 -3 1 -5 -5 -5
-5 0 -574 -563 -1264 -1251 l-1254 -1250 1986 -1983 c1477 -1474 1989 -1979
1997 -1970 6 7 8 15 5 18 -4 3 -1 6 6 6 16 0 42 26 34 34 -4 3 -1 6 5 6 7 0
52 41 100 90 49 50 88 90 86 90 -2 0 7 11 19 23 12 13 24 24 27 23 7 0 278
275 290 294 5 8 10 12 10 8 0 -4 10 3 23 15 13 12 23 24 22 27 -2 6 32 39 43
41 4 1 17 16 30 32 12 17 22 28 22 24 0 -3 12 6 28 20 15 14 27 28 26 32 0 3
11 17 24 31 14 14 22 18 18 10 -4 -8 2 -4 13 10 11 14 21 29 21 33 0 5 5 5 10
2 6 -3 10 1 10 9 0 9 6 15 13 13 6 -1 12 3 11 8 0 6 11 21 24 35 14 14 21 19
17 11 -5 -9 -4 -12 3 -7 7 4 12 14 12 22 0 8 6 13 13 11 6 -1 12 3 11 8 0 6
11 21 24 35 14 14 21 18 17 10 -8 -13 -6 -13 8 -1 9 7 16 16 14 20 -3 6 53 64
66 68 16 6 1244 1243 1239 1248 -3 3 0 5 6 5 16 0 92 76 92 92 0 6 2 9 5 6 6
-6 198 183 237 232 11 14 16 18 12 10 -3 -8 5 -4 18 10 14 14 25 27 24 30 -2
8 124 127 129 122 3 -3 5 1 5 8 0 12 63 78 76 79 2 1 3 2 3 4 -3 4 104 111
140 140 18 15 31 27 27 27 -3 0 3 9 14 20 11 11 23 20 26 19 3 0 19 17 35 38
35 44 89 93 101 93 5 0 7 3 5 8 -3 4 1 13 9 20 8 7 14 10 14 6 0 -4 12 9 27
27 32 39 213 220 213 212 0 -2 12 10 26 27 15 17 104 108 198 201 94 94 167
169 161 167 -13 -3 -95 77 -95 93 0 7 -2 10 -5 7 -7 -6 -805 791 -805 804 0 5
-3 8 -7 6 -10 -5 -132 119 -125 127 3 3 -2 5 -12 5 -9 0 -14 5 -11 10 3 6 2
10 -3 10 -13 0 -53 36 -46 43 3 3 -4 8 -15 12 -12 3 -19 11 -16 16 4 5 2 9 -4
9 -12 0 -161 150 -161 162 0 5 -4 6 -10 3 -6 -3 -10 1 -10 10 0 9 -4 13 -10
10 -5 -3 -10 2 -10 11 0 10 -3 15 -6 12 -6 -7 -74 61 -74 75 0 4 -4 6 -9 2 -5
-3 -12 4 -16 15 -3 11 -9 19 -13 18 -9 -3 -82 71 -82 83 0 5 -4 9 -9 9 -10 0
-71 57 -71 68 -1 4 -18 21 -39 37 -21 17 -47 42 -57 57 -10 15 -20 25 -22 24
-4 -5 -186 181 -190 194 -2 6 -10 10 -17 10 -7 0 -15 4 -17 9 -3 10 -116 127
-208 214 -27 27 -50 53 -50 59 0 5 -4 7 -9 3 -5 -3 -13 3 -16 12 -4 10 -38 46
-76 81 -37 34 -66 62 -63 62 2 0 -21 23 -51 50 -30 28 -53 50 -51 50 3 0 -30
34 -73 74 -43 41 -76 77 -73 80 3 4 -2 6 -11 6 -10 0 -17 4 -17 10 0 12 -79
90 -91 90 -5 0 -9 7 -9 16 0 8 -4 12 -10 9 -5 -3 -10 1 -10 10 0 9 -4 14 -9
10 -5 -3 -12 4 -16 15 -3 11 -11 20 -16 20 -6 0 -262 -252 -571 -560 -308
-308 -564 -560 -569 -560 -5 0 -9 4 -9 8 0 5 -11 15 -25 22 -14 7 -25 17 -25
21 0 11 -60 69 -71 69 -5 0 -9 5 -9 11 0 11 -60 69 -72 69 -5 0 -8 5 -8 11 0
13 -159 169 -173 169 -6 0 -8 2 -5 5 7 8 -85 104 -94 98 -5 -2 -8 1 -8 6 0 14
-138 151 -152 151 -6 0 -9 3 -5 6 7 7 -75 90 -86 86 -4 -1 -6 1 -5 5 3 7 -366
383 -375 383 -2 0 -36 -31 -74 -70z m491 -916 c229 -228 416 -419 416 -423 0
-5 -2215 -2224 -2253 -2258 -2 -1 -191 187 -421 417 l-418 420 674 675 c370
371 671 675 668 675 -3 0 8 9 23 19 16 10 28 21 28 25 -1 3 1 6 4 6 6 1 38 33
88 88 20 23 37 41 37 39 0 -3 183 180 311 311 28 28 53 52 55 52 2 0 17 15 34
33 78 83 214 217 222 217 4 0 7 3 6 8 -1 4 17 26 40 48 23 23 42 39 42 35 0
-3 5 2 11 12 5 9 12 17 14 17 2 0 190 -187 419 -416z m2080 176 c126 -127 234
-230 239 -230 6 0 8 -2 5 -5 -3 -3 46 -56 109 -118 63 -61 131 -130 151 -151
20 -21 57 -57 81 -80 24 -23 51 -49 60 -59 9 -10 44 -46 79 -80 93 -91 112
-111 112 -119 0 -5 4 -8 8 -8 6 0 302 -290 302 -296 0 -1 102 -104 104 -104 5
0 761 -761 764 -768 3 -11 -307 -322 -321 -322 -6 0 -8 -2 -5 -5 6 -7 -301
-315 -313 -315 -5 0 -9 -4 -9 -8 0 -8 -38 -48 -133 -141 l-56 -54 -70 70 c-39
39 -73 68 -76 65 -3 -3 -5 -1 -5 5 0 14 -68 83 -82 83 -6 0 -9 3 -6 6 7 6
-129 144 -142 144 -6 0 -10 5 -10 10 0 13 -138 150 -151 150 -5 0 -9 5 -9 10
0 6 -371 383 -826 838 -454 455 -837 839 -851 855 l-27 27 414 415 c228 228
419 415 425 415 5 0 113 -104 239 -230z m-1294 -967 c32 -28 56 -54 52 -57 -3
-3 2 -6 11 -6 10 0 17 -6 17 -14 0 -8 9 -18 20 -21 11 -4 19 -9 18 -13 -2 -4
36 -46 84 -93 49 -47 88 -84 88 -83 0 1 26 -25 58 -59 31 -34 60 -63 63 -65 6
-2 63 -60 145 -145 7 -7 84 -83 172 -170 88 -87 178 -177 200 -200 23 -23 59
-59 82 -81 22 -21 40 -42 40 -47 0 -6 -252 -262 -561 -571 l-561 -560 -36 33
c-20 19 -40 38 -43 43 -4 4 -242 244 -529 531 l-523 523 397 397 c218 219 396
401 396 406 0 5 3 8 8 7 10 -3 182 169 182 182 0 5 4 10 10 10 13 0 59 48 52
54 -3 3 0 6 5 6 6 0 29 17 50 37 27 27 39 33 42 23 2 -8 29 -38 61 -67z m-930
-1908 c308 -308 560 -563 560 -568 0 -5 -187 -195 -416 -423 l-416 -415 -565
567 -564 567 256 256 c141 142 261 264 266 272 5 8 9 11 9 8 0 -3 46 41 103
98 137 140 201 202 204 200 1 -1 254 -254 563 -562z m2444 396 c92 -90 166
-168 166 -172 0 -5 4 -9 8 -9 7 0 399 -386 471 -464 l24 -26 -561 -560 c-309
-308 -565 -560 -569 -560 -9 0 -826 815 -831 828 -3 9 1118 1135 1124 1130 1
-2 77 -77 168 -167z m-1149 -2494 c-220 -222 -406 -405 -412 -405 -7 -1 -13
-6 -13 -12 0 -5 -6 -10 -13 -10 -11 0 -837 821 -837 832 0 2 188 192 417 422
l416 417 421 -420 421 -421 -400 -403z"/>
</g>
</svg>
